<svg xmlns="http://www.w3.org/2000/svg" width="29.528" height="29.528" viewBox="0 0 29.528 29.528">
  <path id="sms_24dp_FILL0_wght400_GRAD0_opsz24" d="M88.858-866.712a1.428,1.428,0,0,0,1.052-.424,1.428,1.428,0,0,0,.424-1.052,1.429,1.429,0,0,0-.424-1.052,1.429,1.429,0,0,0-1.052-.424,1.429,1.429,0,0,0-1.052.424,1.429,1.429,0,0,0-.424,1.052,1.428,1.428,0,0,0,.424,1.052A1.428,1.428,0,0,0,88.858-866.712Zm5.906,0a1.428,1.428,0,0,0,1.052-.424,1.428,1.428,0,0,0,.424-1.052,1.429,1.429,0,0,0-.424-1.052,1.429,1.429,0,0,0-1.052-.424,1.429,1.429,0,0,0-1.052.424,1.429,1.429,0,0,0-.424,1.052,1.428,1.428,0,0,0,.424,1.052A1.428,1.428,0,0,0,94.764-866.712Zm5.906,0a1.428,1.428,0,0,0,1.052-.424,1.428,1.428,0,0,0,.424-1.052,1.429,1.429,0,0,0-.424-1.052,1.429,1.429,0,0,0-1.052-.424,1.429,1.429,0,0,0-1.052.424,1.429,1.429,0,0,0-.424,1.052,1.428,1.428,0,0,0,.424,1.052A1.428,1.428,0,0,0,100.67-866.712ZM80-850.472v-26.575a2.843,2.843,0,0,1,.867-2.085A2.844,2.844,0,0,1,82.953-880h23.623a2.844,2.844,0,0,1,2.085.867,2.843,2.843,0,0,1,.867,2.085v17.717a2.844,2.844,0,0,1-.867,2.086,2.843,2.843,0,0,1-2.085.867H85.906Zm4.651-8.859h21.925v-17.717H82.953v19.378Zm-1.7,0v0Z" transform="translate(-80 880)" fill="#0078bd"/>
</svg>
