<svg xmlns="http://www.w3.org/2000/svg" width="30.891" height="29.274" viewBox="0 0 30.891 29.274">
  <g id="Group_22302" data-name="Group 22302" transform="translate(0.5 0.5)">
    <path id="Path_103260" data-name="Path 103260" d="M26.567,30.675a.832.832,0,0,0-.832.832V46.7a2.916,2.916,0,0,1-2.912,2.912H4.577A2.916,2.916,0,0,1,1.664,46.7V28.456a2.916,2.916,0,0,1,2.912-2.912H22.823a.832.832,0,1,0,0-1.664H4.577A4.582,4.582,0,0,0,0,28.456V46.7a4.582,4.582,0,0,0,4.577,4.577H22.823A4.582,4.582,0,0,0,27.4,46.7V31.507A.832.832,0,0,0,26.567,30.675Z" transform="translate(0 -23.005)" fill="#fff" stroke="#fff" stroke-width="1"/>
    <path id="Path_103261" data-name="Path 103261" d="M110.767,11.716a.832.832,0,0,0-1.177,0L92.87,28.435l-4.179-4.179a.832.832,0,0,0-1.177,1.177L92.283,30.2a.832.832,0,0,0,1.177,0h0l17.307-17.307A.832.832,0,0,0,110.767,11.716Z" transform="translate(-81.12 -11.472)" fill="#fff" stroke="#fff" stroke-width="1"/>
  </g>
</svg>
