<svg width="31" height="30" viewBox="0 0 31 30" fill="none" xmlns="http://www.w3.org/2000/svg">
<g clip-path="url(#clip0_642_2)">
<path d="M27.067 8.17C26.8463 8.17 26.6347 8.25766 26.4787 8.41369C26.3227 8.56972 26.235 8.78134 26.235 9.002V24.195C26.2339 24.967 25.9268 25.7071 25.3809 26.2529C24.835 26.7988 24.095 27.1059 23.323 27.107H5.077C4.30484 27.1062 3.56452 26.7992 3.01843 26.2533C2.47234 25.7074 2.16506 24.9672 2.164 24.195V5.951C2.16506 5.17901 2.4722 4.43895 3.01807 3.89307C3.56395 3.3472 4.30401 3.04006 5.076 3.039H23.323C23.5437 3.039 23.7553 2.95134 23.9113 2.79531C24.0673 2.63928 24.155 2.42766 24.155 2.207C24.155 1.98634 24.0673 1.77472 23.9113 1.61869C23.7553 1.46266 23.5437 1.375 23.323 1.375H5.077C3.86368 1.37632 2.70043 1.85883 1.84239 2.71668C0.984348 3.57453 0.501588 4.73768 0.5 5.951L0.5 24.195C0.501323 25.4085 0.983967 26.5719 1.84203 27.43C2.7001 28.288 3.86351 28.7707 5.077 28.772H23.323C24.5365 28.7707 25.6999 28.288 26.558 27.43C27.416 26.5719 27.8987 25.4085 27.9 24.195V9.002C27.9 8.89266 27.8784 8.78438 27.8366 8.68338C27.7947 8.58237 27.7333 8.49061 27.656 8.41333C27.5786 8.33606 27.4868 8.2748 27.3857 8.23305C27.2846 8.19129 27.1763 8.16987 27.067 8.17Z" fill="#0078BD" stroke="#0078BD"/>
<path d="M30.1472 0.743874C30.0699 0.666559 29.9782 0.605227 29.8772 0.563382C29.7762 0.521537 29.668 0.5 29.5587 0.5C29.4494 0.5 29.3411 0.521537 29.2401 0.563382C29.1392 0.605227 29.0474 0.666559 28.9702 0.743874L12.2502 17.4629L8.07116 13.2839C7.91508 13.1278 7.70339 13.0401 7.48266 13.0401C7.26193 13.0401 7.05024 13.1278 6.89416 13.2839C6.73808 13.44 6.65039 13.6516 6.65039 13.8724C6.65039 14.0931 6.73808 14.3048 6.89416 14.4609L11.6632 19.2279C11.7404 19.3052 11.8322 19.3665 11.9331 19.4084C12.0341 19.4502 12.1424 19.4717 12.2517 19.4717C12.361 19.4717 12.4692 19.4502 12.5702 19.4084C12.6712 19.3665 12.7629 19.3052 12.8402 19.2279L30.1472 1.92087C30.2245 1.84361 30.2858 1.75187 30.3277 1.65089C30.3695 1.54991 30.391 1.44168 30.391 1.33237C30.391 1.22307 30.3695 1.11484 30.3277 1.01386C30.2858 0.912881 30.2245 0.821139 30.1472 0.743874Z" fill="#0078BD" stroke="#0078BD"/>
</g>
<defs>
<clipPath id="clip0_642_2">
<rect width="30.891" height="29.274" fill="white"/>
</clipPath>
</defs>
</svg>
