<svg xmlns="http://www.w3.org/2000/svg" width="49.24" height="66.46" viewBox="0 0 49.24 66.46">
  <g id="country-earth-flag-globe-nation-national-svgrepo-com" transform="translate(-139.29 -89.5)">
    <path id="Ellipse_99" data-name="Ellipse 99" d="M14.773-6.5A21.273,21.273,0,1,1-6.5,14.773,21.3,21.3,0,0,1,14.773-6.5Zm0,40.167A18.895,18.895,0,1,0-4.122,14.773,18.916,18.916,0,0,0,14.773,33.667Z" transform="translate(152.485 102.695)" fill="#263036"/>
    <ellipse id="Ellipse_99-2" data-name="Ellipse 99" cx="8.5" cy="18.5" rx="8.5" ry="18.5" transform="translate(158.521 98.686)" fill="#f5a604"/>
    <path id="Path_103256" data-name="Path 103256" d="M236.2,122.93a1.187,1.187,0,0,1,.7.228c6.271,4.566,10.015,12.433,10.015,21.043s-3.742,16.484-10.009,21.047a1.189,1.189,0,0,1-1.4,0c-6.268-4.563-10.009-12.431-10.009-21.047s3.739-16.477,10-21.043A1.188,1.188,0,0,1,236.2,122.93Zm.006,39.861c5.232-4.185,8.331-11.062,8.331-18.59s-3.1-14.4-8.337-18.586c-5.229,4.186-8.326,11.062-8.326,18.586S230.977,158.606,236.209,162.791Z" transform="translate(-68.946 -26.735)" fill="#263036"/>
    <path id="Path_103257" data-name="Path 103257" d="M167.257,155.96a1.189,1.189,0,0,1-1.189-1.189V145.41a27.967,27.967,0,0,1,1.189-55.91,1.189,1.189,0,0,1,1.189,1.189v6.695a1.189,1.189,0,1,1-2.378,0V91.905a25.59,25.59,0,0,0,1.189,51.151,1.189,1.189,0,0,1,1.189,1.189v10.525A1.189,1.189,0,0,1,167.257,155.96Z" transform="translate(0 0)" fill="#263036"/>
    <path id="Line_1" data-name="Line 1" d="M11.426-4.122H-5.311A1.189,1.189,0,0,1-6.5-5.311,1.189,1.189,0,0,1-5.311-6.5H11.426a1.189,1.189,0,0,1,1.189,1.189A1.189,1.189,0,0,1,11.426-4.122Z" transform="translate(164.2 160.082)" fill="#263036"/>
    <path id="Line_2" data-name="Line 2" d="M34.856-4.122H-5.311A1.189,1.189,0,0,1-6.5-5.311,1.189,1.189,0,0,1-5.311-6.5H34.856a1.189,1.189,0,0,1,1.189,1.189A1.189,1.189,0,0,1,34.856-4.122Z" transform="translate(152.485 122.778)" fill="#263036"/>
  </g>
</svg>
