<svg xmlns="http://www.w3.org/2000/svg" width="9.989" height="17.6" viewBox="0 0 9.989 17.6">
  <path id="facebook" d="M7.611,4.356c.024-.027.136-.116.578-.116H9.636a.855.855,0,0,0,.854-.854V.857A.855.855,0,0,0,9.637,0L7.487,0A4.424,4.424,0,0,0,4.226,1.265,4.645,4.645,0,0,0,3,4.593V5.957H1.353A.855.855,0,0,0,.5,6.811V9.535a.855.855,0,0,0,.854.854H3v6.357a.855.855,0,0,0,.854.854H6.67a.855.855,0,0,0,.854-.854V10.389h2.01a.855.855,0,0,0,.854-.854V6.811a.856.856,0,0,0-.439-.747.868.868,0,0,0-.422-.107h-2V4.879c0-.351.047-.478.087-.523Zm0,0" transform="translate(-0.5 0)" fill="#fff"/>
</svg>
