<svg xmlns="http://www.w3.org/2000/svg" width="23.888" height="16.682" viewBox="0 0 23.888 16.682">
  <path id="Path_103251" data-name="Path 103251" d="M22.48-796.318V-813h2.546v10.782H33.6v-8.693h8.133a4.463,4.463,0,0,1,3.273,1.362,4.462,4.462,0,0,1,1.361,3.273v9.959H43.822v-3.133h-18.8v3.133Zm6.844-6.826a3.252,3.252,0,0,1-2.389-.983,3.253,3.253,0,0,1-.983-2.389,3.217,3.217,0,0,1,.983-2.378,3.271,3.271,0,0,1,2.389-.973,3.234,3.234,0,0,1,2.378.973,3.235,3.235,0,0,1,.973,2.378,3.271,3.271,0,0,1-.973,2.389,3.217,3.217,0,0,1-2.378.983Zm6.823.926h7.675v-4.059a2.011,2.011,0,0,0-.613-1.475,2.011,2.011,0,0,0-1.475-.614H36.147Zm-6.826-3.251a1.01,1.01,0,0,0,.744-.3,1.01,1.01,0,0,0,.3-.744,1.01,1.01,0,0,0-.3-.744,1.011,1.011,0,0,0-.744-.3,1.01,1.01,0,0,0-.744.3,1.01,1.01,0,0,0-.3.744,1.01,1.01,0,0,0,.3.744A1.01,1.01,0,0,0,29.321-805.469ZM29.321-806.513Zm6.826-1.853v0Z" transform="translate(-22.48 813)" fill="#0078bd"/>
</svg>
