<svg id="instagram" xmlns="http://www.w3.org/2000/svg" width="17.887" height="17.887" viewBox="0 0 17.887 17.887">
  <g id="Group_183" data-name="Group 183">
    <g id="Group_182" data-name="Group 182">
      <path id="Path_143" data-name="Path 143" d="M13.42,0H4.477A4.485,4.485,0,0,0,0,4.472v8.944a4.486,4.486,0,0,0,4.472,4.472H13.42a4.486,4.486,0,0,0,4.472-4.472V4.472A4.485,4.485,0,0,0,13.42,0ZM16.4,13.416A2.984,2.984,0,0,1,13.42,16.4H4.477A2.985,2.985,0,0,1,1.5,13.416V4.472A2.985,2.985,0,0,1,4.477,1.491H13.42A2.984,2.984,0,0,1,16.4,4.472v8.944Z" transform="translate(-0.005 0)" fill="#fff"/>
    </g>
  </g>
  <g id="Group_185" data-name="Group 185" transform="translate(12.671 2.981)">
    <g id="Group_184" data-name="Group 184">
      <ellipse id="Ellipse_14" data-name="Ellipse 14" cx="1.118" cy="1.118" rx="1.118" ry="1.118" fill="#fff"/>
    </g>
  </g>
  <g id="Group_187" data-name="Group 187" transform="translate(4.472 4.472)">
    <g id="Group_186" data-name="Group 186">
      <path id="Path_144" data-name="Path 144" d="M106.877,102.4a4.472,4.472,0,1,0,4.472,4.472A4.471,4.471,0,0,0,106.877,102.4Zm0,7.453a2.981,2.981,0,1,1,2.981-2.981A2.981,2.981,0,0,1,106.877,109.853Z" transform="translate(-102.405 -102.4)" fill="#fff"/>
    </g>
  </g>
</svg>
