<svg xmlns="http://www.w3.org/2000/svg" width="22.176" height="22.176" viewBox="0 0 22.176 22.176">
  <path id="Path_103254" data-name="Path 103254" d="M87.868-861.044a10.724,10.724,0,0,1-4.3-.872,11.244,11.244,0,0,1-3.532-2.385,11.245,11.245,0,0,1-2.385-3.532,10.725,10.725,0,0,1-.872-4.3,10.714,10.714,0,0,1,.872-4.305,11.264,11.264,0,0,1,2.385-3.526,11.247,11.247,0,0,1,3.532-2.385,10.726,10.726,0,0,1,4.3-.872,10.714,10.714,0,0,1,4.305.872,11.267,11.267,0,0,1,3.526,2.385,11.265,11.265,0,0,1,2.385,3.526,10.714,10.714,0,0,1,.872,4.305,10.726,10.726,0,0,1-.872,4.3A11.245,11.245,0,0,1,95.7-864.3a11.263,11.263,0,0,1-3.526,2.385A10.712,10.712,0,0,1,87.868-861.044Zm-.031-2.762a5.48,5.48,0,0,0,.873-1.707,15.235,15.235,0,0,0,.715-2.752H86.3a16.665,16.665,0,0,0,.692,2.752A5.224,5.224,0,0,0,87.837-863.806Zm-2.425-.275a8.09,8.09,0,0,1-.674-1.866q-.258-1.073-.45-2.318H80.449a8.04,8.04,0,0,0,2.047,2.634A7.641,7.641,0,0,0,85.412-864.081Zm4.865,0a7.779,7.779,0,0,0,2.931-1.55,7.953,7.953,0,0,0,2.063-2.634H91.432q-.192,1.246-.466,2.318A8.585,8.585,0,0,1,90.277-864.081ZM79.722-870.2h4.319q-.055-.522-.069-1.015t-.014-.973q0-.5.014-.953t.069-.925H79.722a6.741,6.741,0,0,0-.192.973,8.185,8.185,0,0,0-.055.96,8.252,8.252,0,0,0,.055.953A6.7,6.7,0,0,0,79.722-870.2Zm6.326,0h3.624a9.844,9.844,0,0,0,.053-1.015q0-.466,0-.918,0-.468,0-.939a9.152,9.152,0,0,0-.053-.994H86.048q-.055.522-.069.994t-.014.939q0,.452.014.931T86.048-870.2Zm5.631,0h4.3a6.7,6.7,0,0,0,.192-.98,8.251,8.251,0,0,0,.055-.953,8.541,8.541,0,0,0-.055-.974,5.916,5.916,0,0,0-.192-.959h-4.3q.039.522.045,1.008t.006.98q0,.479-.006.945T91.68-870.2Zm-.247-5.815h3.839a7.875,7.875,0,0,0-2.063-2.627,7.837,7.837,0,0,0-2.931-1.542,8.616,8.616,0,0,1,.689,1.858Q91.24-877.26,91.432-876.014Zm-5.136,0h3.129a14.25,14.25,0,0,0-.7-2.745,5.223,5.223,0,0,0-.888-1.7,5.222,5.222,0,0,0-.849,1.7A16.438,16.438,0,0,0,86.3-876.014Zm-5.846,0h3.839q.192-1.246.45-2.311a8.113,8.113,0,0,1,.674-1.858,7.7,7.7,0,0,0-2.916,1.542A7.96,7.96,0,0,0,80.449-876.014Z" transform="translate(-76.78 883.22)" fill="#0078bd"/>
</svg>
