<svg id="Group_176" data-name="Group 176" xmlns="http://www.w3.org/2000/svg" xmlns:xlink="http://www.w3.org/1999/xlink" width="17.159" height="16.401" viewBox="0 0 17.159 16.401">
  <defs>
    <clipPath id="clip-path">
      <rect id="Rectangle_91" data-name="Rectangle 91" width="17.159" height="16.401" fill="#fff"/>
    </clipPath>
  </defs>
  <g id="Group_175" data-name="Group 175">
    <g id="Group_174" data-name="Group 174" clip-path="url(#clip-path)">
      <path id="Path_139" data-name="Path 139" d="M2.081,0a1.917,1.917,0,1,0-.048,3.824h.024A1.918,1.918,0,1,0,2.081,0" fill="#fff"/>
      <rect id="Rectangle_90" data-name="Rectangle 90" width="3.678" height="11.066" transform="translate(0.217 5.335)" fill="#fff"/>
      <path id="Path_140" data-name="Path 140" d="M227.992,189.108a4.608,4.608,0,0,0-3.315,1.865v-1.6H221v11.066h3.678v-6.18a2.521,2.521,0,0,1,.121-.9,2.013,2.013,0,0,1,1.887-1.345c1.331,0,1.863,1.015,1.863,2.5v5.92h3.678v-6.345c0-3.4-1.815-4.981-4.235-4.981" transform="translate(-215.068 -184.033)" fill="#fff"/>
    </g>
  </g>
</svg>
