<svg xmlns="http://www.w3.org/2000/svg" width="13.87" height="13.869" viewBox="0 0 13.87 13.869">
  <path id="Path_103249" data-name="Path 103249" d="M154.893,142.18c-.147-.083-.314-.177-.515-.3-.112-.068-.253-.16-.4-.258a3.988,3.988,0,0,0-1.842-.86.9.9,0,0,0-.325.058,3.144,3.144,0,0,0-1.133,1.044,5.538,5.538,0,0,1-.416.485,8.18,8.18,0,0,1-3.974-3.978,5.5,5.5,0,0,1,.487-.419,3.149,3.149,0,0,0,1.041-1.13c.214-.555-.178-1.219-.8-2.169-.1-.149-.191-.291-.258-.4-.121-.2-.215-.369-.3-.516-.34-.6-.564-1-1.407-1a3.306,3.306,0,0,0-1.845,1.031,3.5,3.5,0,0,0-1.181,2.427c0,2.226,1.243,4.777,3.405,7l.011.008c2.223,2.164,4.773,3.4,7,3.4h0a3.493,3.493,0,0,0,2.424-1.177,3.3,3.3,0,0,0,1.031-1.84C155.895,142.744,155.5,142.52,154.893,142.18Z" transform="translate(-142.025 -132.735)" fill="#fff"/>
</svg>
