<svg xmlns="http://www.w3.org/2000/svg" width="68.678" height="61.047" viewBox="0 0 68.678 61.047">
  <g id="Group_22263" data-name="Group 22263" transform="translate(-658 -633.166)">
    <path id="Path_103256" data-name="Path 103256" d="M701.815,654.752l12.167,24.516H689.648Z" transform="translate(6.171 4.209)" fill="#f5a604"/>
    <path id="translate-thin-svgrepo-com" d="M88.537,87.206,70.732,51.6a1.272,1.272,0,0,0-2.275,0L61.191,66.128a29.266,29.266,0,0,1-17.669-6.542,31.7,31.7,0,0,0,9.512-21.412h8.93a1.272,1.272,0,0,0,0-2.544H42.886V29.272a1.272,1.272,0,1,0-2.544,0v6.359H21.266a1.272,1.272,0,0,0,0,2.544H50.488A29.17,29.17,0,0,1,41.611,57.9a29.148,29.148,0,0,1-7.233-11.245,1.272,1.272,0,1,0-2.4.848A31.678,31.678,0,0,0,39.708,59.59a29.113,29.113,0,0,1-18.442,6.564,1.272,1.272,0,0,0,0,2.544,31.65,31.65,0,0,0,20.349-7.384,31.828,31.828,0,0,0,18.331,7.3L50.651,87.206a1.272,1.272,0,1,0,2.275,1.138l4.736-9.472H81.527l4.736,9.471a1.272,1.272,0,1,0,2.275-1.138Zm-29.6-10.877,10.66-21.32,10.66,21.32Z" transform="translate(638.006 605.166)" fill="#263036"/>
  </g>
</svg>
