<svg xmlns="http://www.w3.org/2000/svg" width="23.767" height="23.518" viewBox="0 0 23.767 23.518">
  <path id="search_FILL0_wght200_GRAD0_opsz24" d="M174.755-785.713l-4.894-4.645a10.26,10.26,0,0,1-3.216,1.843,10.749,10.749,0,0,1-3.653.652,10.316,10.316,0,0,1-7.582-3.1,10.305,10.305,0,0,1-3.1-7.578,10.327,10.327,0,0,1,3.1-7.583,10.3,10.3,0,0,1,7.578-3.107,10.324,10.324,0,0,1,7.583,3.1,10.306,10.306,0,0,1,3.107,7.582,10.533,10.533,0,0,1-.688,3.761,10.217,10.217,0,0,1-1.807,3.109l4.894,4.645Zm-11.763-4.014a8.519,8.519,0,0,0,6.265-2.555,8.519,8.519,0,0,0,2.555-6.265,8.519,8.519,0,0,0-2.555-6.265,8.519,8.519,0,0,0-6.265-2.555,8.519,8.519,0,0,0-6.265,2.555,8.519,8.519,0,0,0-2.555,6.265,8.519,8.519,0,0,0,2.555,6.265A8.519,8.519,0,0,0,162.991-789.727Z" transform="translate(-152.307 809.231)"/>
</svg>
