<svg xmlns="http://www.w3.org/2000/svg" width="58.846" height="66.282" viewBox="0 0 58.846 66.282">
  <g id="Group_22306" data-name="Group 22306" transform="translate(-650.629 -633.565)">
    <rect id="Rectangle_2384" data-name="Rectangle 2384" width="10" height="17" rx="5" transform="translate(697 658)" fill="#f5a604"/>
    <rect id="Rectangle_2383" data-name="Rectangle 2383" width="10" height="17" rx="5" transform="translate(653 658)" fill="#f5a604"/>
    <path id="online-service-svgrepo-com" d="M98.411,81.671h-.267a5.319,5.319,0,0,1-1.495-10.3,5.422,5.422,0,0,1,1.815-.32,5.264,5.264,0,0,1,4.751,2.989c.214.427.48.48.641.48h.214a26.049,26.049,0,0,0,19.856-14.572c.053-.053.053-.16.107-.267l.16-.427-.48.053-.32.053c-.214,0-.32.053-.48.053h-.427a7.153,7.153,0,0,1-7.153-7.153V44.894a7.153,7.153,0,0,1,7.153-7.153h.427a6.369,6.369,0,0,1,1.388.267c.214.053.48.107.694.16l.16.053.427.16-.107-.48a25.962,25.962,0,0,0-24.5-19.323h-.694A26.21,26.21,0,0,0,75.032,37.795l-.107.427.427-.107c.16-.053.32-.053.48-.107a7.8,7.8,0,0,1,1.068-.267,8.729,8.729,0,0,1,1.174-.107,7.2,7.2,0,0,1,6.992,5.872A12.279,12.279,0,0,1,85.173,45v7.206a7.1,7.1,0,0,1-5.711,7.046,6.625,6.625,0,0,1-1.441.16,7.209,7.209,0,0,1-7.046-5.925,11.48,11.48,0,0,1-.107-1.228V50.125c0-1.868-.053-3.79,0-5.658A28.948,28.948,0,0,1,82.344,21.515a28.174,28.174,0,0,1,12.811-5.658,26.852,26.852,0,0,1,7.153-.374c.374.053.8.053,1.174.107a27.783,27.783,0,0,1,11.53,3.79A29.127,29.127,0,0,1,128.73,37.368a27.187,27.187,0,0,1,.961,7.313v7.526a8.272,8.272,0,0,1-.747,3.309,3.542,3.542,0,0,0-.32,1.068c-.053.107-.053.267-.107.374A29.407,29.407,0,0,1,106.258,77.4c-.641.107-1.334.267-2.188.374a.758.758,0,0,0-.641.534,5.492,5.492,0,0,1-5.018,3.363Zm24.18-40.834h-.427a3.945,3.945,0,0,0-3.576,3.95v7.419a5.882,5.882,0,0,0,.107.961,3.983,3.983,0,0,0,3.843,3.1,1.478,1.478,0,0,0,.48-.053,3.983,3.983,0,0,0,3.576-3.95V44.841a4.7,4.7,0,0,0-.107-.907A4.089,4.089,0,0,0,122.591,40.837Zm-44.57,0a3.92,3.92,0,0,0-3.95,4v7.313a4.7,4.7,0,0,0,.107.907,3.983,3.983,0,0,0,3.843,3.1h.427a3.945,3.945,0,0,0,3.576-3.95V44.841A4,4,0,0,0,78.021,40.837Z" transform="translate(579.784 618.176)" fill="#263036"/>
  </g>
</svg>
