<svg xmlns="http://www.w3.org/2000/svg" width="17.464" height="19.905" viewBox="0 0 17.464 19.905">
  <path id="threads" d="M40.289,19.905h-.006A8.3,8.3,0,0,1,33.5,16.994,11.136,11.136,0,0,1,31.4,9.96V9.945A11.135,11.135,0,0,1,33.5,2.911,8.3,8.3,0,0,1,40.282,0h.011a9.162,9.162,0,0,1,5.662,1.739,8.377,8.377,0,0,1,2.911,4.535l-1.692.472c-.915-3.284-3.232-4.963-6.887-4.989A6.629,6.629,0,0,0,34.865,4.01a9.454,9.454,0,0,0-1.706,5.942,9.459,9.459,0,0,0,1.706,5.942,6.63,6.63,0,0,0,5.424,2.254,6.356,6.356,0,0,0,4.811-1.7,3.563,3.563,0,0,0,.9-3.978,3.2,3.2,0,0,0-1.355-1.45,5.479,5.479,0,0,1-1.065,2.713,4.059,4.059,0,0,1-3.092,1.485,4.552,4.552,0,0,1-2.7-.664,3.11,3.11,0,0,1-.351-5.014,4.9,4.9,0,0,1,2.971-1.07,11.369,11.369,0,0,1,2.5.118,2.884,2.884,0,0,0-.62-1.457,2.5,2.5,0,0,0-1.957-.739h-.024a2.6,2.6,0,0,0-2.258,1.094L36.6,6.509a4.31,4.31,0,0,1,3.715-1.87h.036c2.65.016,4.228,1.637,4.385,4.468.09.038.178.077.266.118a5.139,5.139,0,0,1,2.615,2.546,5.307,5.307,0,0,1-1.285,5.938,8.059,8.059,0,0,1-6.034,2.2h-.005Zm.832-9.7c-.2,0-.4.006-.612.018-1.523.086-2.472.784-2.419,1.777.057,1.041,1.205,1.525,2.308,1.465,1.016-.055,2.338-.45,2.559-3.077a8.824,8.824,0,0,0-1.837-.183Z" transform="translate(-31.403)" fill="#fff"/>
</svg>
