<svg xmlns="http://www.w3.org/2000/svg" width="39.581" height="37.439" viewBox="0 0 39.581 37.439">
  <g id="tick-box-svgrepo-com" transform="translate(124 -71.472)">
    <g id="Group_22302" data-name="Group 22302" transform="translate(-124 71.472)">
      <path id="Path_103260" data-name="Path 103260" d="M35.18,32.878a1.1,1.1,0,0,0-1.1,1.1V54.1a3.861,3.861,0,0,1-3.856,3.856H6.06A3.861,3.861,0,0,1,2.2,54.1V29.939A3.861,3.861,0,0,1,6.06,26.083H30.221a1.1,1.1,0,1,0,0-2.2H6.06A6.068,6.068,0,0,0,0,29.939V54.1a6.067,6.067,0,0,0,6.06,6.06H30.221a6.067,6.067,0,0,0,6.06-6.06V33.98A1.1,1.1,0,0,0,35.18,32.878Z" transform="translate(0 -22.721)" fill="#263036"/>
      <path id="Path_103261" data-name="Path 103261" d="M118.384,11.795a1.1,1.1,0,0,0-1.558,0L94.685,33.934,89.152,28.4a1.1,1.1,0,0,0-1.558,1.558l6.314,6.312a1.1,1.1,0,0,0,1.558,0s0,0,0,0l22.917-22.917A1.1,1.1,0,0,0,118.384,11.795Z" transform="translate(-79.126 -11.472)" fill="#0db84d"/>
    </g>
  </g>
</svg>
