<svg xmlns="http://www.w3.org/2000/svg" width="22.176" height="22.176" viewBox="0 0 22.176 22.176">
  <path id="Path_103253" data-name="Path 103253" d="M82.383-866.647l7.994-2.977,2.977-7.994-7.994,2.977Zm5.485-4.165a1.165,1.165,0,0,1-.935-.371,1.319,1.319,0,0,1-.385-.949,1.283,1.283,0,0,1,.379-.935,1.268,1.268,0,0,1,.94-.385,1.278,1.278,0,0,1,.94.379,1.277,1.277,0,0,1,.379.94,1.277,1.277,0,0,1-.379.94A1.277,1.277,0,0,1,87.868-870.812Zm.008,9.768a10.854,10.854,0,0,1-4.322-.865,11.155,11.155,0,0,1-3.53-2.378,11.159,11.159,0,0,1-2.378-3.529,10.862,10.862,0,0,1-.865-4.329,10.774,10.774,0,0,1,.865-4.316,11.2,11.2,0,0,1,2.378-3.516,11.159,11.159,0,0,1,3.529-2.378,10.863,10.863,0,0,1,4.329-.865,10.774,10.774,0,0,1,4.316.865,11.2,11.2,0,0,1,3.517,2.378,11.179,11.179,0,0,1,2.378,3.523,10.8,10.8,0,0,1,.865,4.315,10.853,10.853,0,0,1-.865,4.323,11.156,11.156,0,0,1-2.378,3.53,11.178,11.178,0,0,1-3.523,2.378A10.8,10.8,0,0,1,87.876-861.044Zm-.008-2.695a8.1,8.1,0,0,0,5.953-2.44,8.1,8.1,0,0,0,2.44-5.953,8.1,8.1,0,0,0-2.44-5.953,8.1,8.1,0,0,0-5.953-2.44,8.1,8.1,0,0,0-5.953,2.44,8.1,8.1,0,0,0-2.44,5.953,8.1,8.1,0,0,0,2.44,5.953A8.1,8.1,0,0,0,87.868-863.739Zm0-8.393" transform="translate(-76.78 883.22)" fill="#0078bd"/>
</svg>
