<svg xmlns="http://www.w3.org/2000/svg" width="23.888" height="17.916" viewBox="0 0 23.888 17.916">
  <path id="Path_103252" data-name="Path 103252" d="M104.274-754.781l10.3-2.768a1.241,1.241,0,0,0,.7-.544,1,1,0,0,0,.109-.824,1.16,1.16,0,0,0-.524-.684,1.015,1.015,0,0,0-.844-.124l-2.83.778-4.7-4.355-1.617.466,2.8,4.821-2.781.746-1.449-1.151-1.089.28Zm13.375,4.7H98.24a2.157,2.157,0,0,1-1.582-.658A2.156,2.156,0,0,1,96-752.323V-756.8a2.154,2.154,0,0,0,1.582-.66,2.166,2.166,0,0,0,.658-1.586,2.16,2.16,0,0,0-.658-1.584A2.156,2.156,0,0,0,96-761.291v-4.479a2.141,2.141,0,0,1,.658-1.577A2.164,2.164,0,0,1,98.24-768h19.409a2.156,2.156,0,0,1,1.582.658,2.158,2.158,0,0,1,.658,1.583v13.445a2.142,2.142,0,0,1-.658,1.578A2.164,2.164,0,0,1,117.649-750.084Zm0-2.24V-765.76H98.24v2.83a4.647,4.647,0,0,1,1.617,1.617,4.3,4.3,0,0,1,.622,2.271,4.3,4.3,0,0,1-.622,2.271,4.646,4.646,0,0,1-1.617,1.617v2.831ZM107.944-759.042Z" transform="translate(-96 768)" fill="#0078bd"/>
</svg>
