<svg id="whatsapp" xmlns="http://www.w3.org/2000/svg" width="60.361" height="60.36" viewBox="0 0 60.361 60.36">
  <path id="Path_146" data-name="Path 146" d="M114.715,82.64A31.11,31.11,0,0,0,83.789,52.069,29.285,29.285,0,0,0,54.452,79.114a30.84,30.84,0,0,0,4.754,18.979l-1.124,10.7h.172l10.818-.983a30.55,30.55,0,0,0,16.213,4.615h0A29.246,29.246,0,0,0,114.715,82.64Z" transform="translate(-54.356 -52.069)" fill="#0bbc58"/>
  <path id="Path_145" data-name="Path 145" d="M161.022,146.677c-.217-.122-.463-.261-.76-.439-.165-.1-.374-.237-.594-.382a5.888,5.888,0,0,0-2.719-1.269,1.328,1.328,0,0,0-.48.086,4.641,4.641,0,0,0-1.672,1.541,8.173,8.173,0,0,1-.614.716,12.076,12.076,0,0,1-5.867-5.872,8.1,8.1,0,0,1,.72-.618,4.649,4.649,0,0,0,1.537-1.668c.316-.82-.263-1.8-1.182-3.2-.145-.221-.281-.429-.381-.593-.179-.3-.318-.544-.44-.761-.5-.892-.833-1.481-2.077-1.481a4.881,4.881,0,0,0-2.723,1.521,5.172,5.172,0,0,0-1.744,3.582c0,3.286,1.835,7.052,5.027,10.336.006.005.011.007.017.012,3.282,3.2,7.047,5.023,10.33,5.023h0a5.156,5.156,0,0,0,3.578-1.737,4.867,4.867,0,0,0,1.522-2.716C162.5,147.511,161.912,147.179,161.022,146.677Z" transform="translate(-121.596 -113.279)" fill="#fff"/>
</svg>
