<svg xmlns="http://www.w3.org/2000/svg" width="22.637" height="16.358" viewBox="0 0 22.637 16.358">
  <path id="youtube" d="M11.316,16.858H11.31c-.683,0-6.722-.06-8.432-.522a3.5,3.5,0,0,1-2.462-2.46A25.675,25.675,0,0,1,0,8.7,26.159,26.159,0,0,1,.414,3.487v0A3.572,3.572,0,0,1,2.874,1.006l.009,0C4.575.559,10.625.5,11.31.5h.012c.685,0,6.739.06,8.434.523a3.5,3.5,0,0,1,2.459,2.456,24.908,24.908,0,0,1,.417,5.241,25.746,25.746,0,0,1-.415,5.167v0a3.5,3.5,0,0,1-2.463,2.46h0c-1.691.444-7.742.5-8.426.5h-.006ZM2.124,3.94a25.3,25.3,0,0,0-.356,4.749v.023a23.77,23.77,0,0,0,.356,4.705,1.724,1.724,0,0,0,1.214,1.21,59.193,59.193,0,0,0,7.978.461,61.593,61.593,0,0,0,7.981-.445,1.726,1.726,0,0,0,1.212-1.21,23.851,23.851,0,0,0,.356-4.7c0-.009,0-.019,0-.028a23.021,23.021,0,0,0-.354-4.756v0A1.726,1.726,0,0,0,19.294,2.73a58.972,58.972,0,0,0-7.978-.461,61.676,61.676,0,0,0-7.978.444A1.774,1.774,0,0,0,2.124,3.94Zm19.239,9.722h0Zm-12.3-1.4V5.1l6.19,3.581Zm0,0" transform="translate(0.002 -0.5)" fill="#fff"/>
</svg>
